<svg xmlns="http://www.w3.org/2000/svg" viewBox="0 0 1280 640" width="1280" height="640">
  <!-- Background -->
  <defs>
    <linearGradient id="bgGradient" x1="0%" y1="0%" x2="100%" y2="100%">
      <stop offset="0%" stop-color="#1a1a2e" />
      <stop offset="100%" stop-color="#16213e" />
    </linearGradient>
    
    <!-- Circuit board pattern -->
    <pattern id="circuitPattern" patternUnits="userSpaceOnUse" width="200" height="200" patternTransform="scale(0.5) rotate(10)">
      <rect width="200" height="200" fill="none"/>
      <path d="M0,20 L200,20 M20,0 L20,200 M50,0 L50,200 M80,0 L80,200 M0,50 L200,50 M0,80 L200,80 M0,110 L200,110 M110,0 L110,200 M140,0 L140,200 M170,0 L170,200 M0,140 L200,140 M0,170 L200,170" 
            stroke="#4d6c9b" stroke-width="1" opacity="0.15"/>
      <circle cx="20" cy="20" r="3" fill="#4d6c9b" opacity="0.3"/>
      <circle cx="50" cy="50" r="3" fill="#4d6c9b" opacity="0.3"/>
      <circle cx="80" cy="80" r="3" fill="#4d6c9b" opacity="0.3"/>
      <circle cx="110" cy="110" r="3" fill="#4d6c9b" opacity="0.3"/>
      <circle cx="140" cy="140" r="3" fill="#4d6c9b" opacity="0.3"/>
      <circle cx="170" cy="170" r="3" fill="#4d6c9b" opacity="0.3"/>
      <circle cx="20" cy="80" r="3" fill="#4d6c9b" opacity="0.3"/>
      <circle cx="80" cy="20" r="3" fill="#4d6c9b" opacity="0.3"/>
      <circle cx="50" cy="140" r="3" fill="#4d6c9b" opacity="0.3"/>
      <circle cx="140" cy="50" r="3" fill="#4d6c9b" opacity="0.3"/>
    </pattern>
    
    <!-- Glow Filter -->
    <filter id="glow" x="-50%" y="-50%" width="200%" height="200%">
      <feGaussianBlur stdDeviation="8" result="blur"/>
      <feComposite in="SourceGraphic" in2="blur" operator="over"/>
    </filter>
    
    <!-- Data Flow Gradient -->
    <linearGradient id="dataFlowGradient" x1="0%" y1="0%" x2="0%" y2="100%">
      <stop offset="0%" stop-color="#4cc9f0" stop-opacity="1" />
      <stop offset="100%" stop-color="#3a0ca3" stop-opacity="0.7" />
    </linearGradient>
    
    <!-- Data Pulse Animation -->
    <radialGradient id="dataPulse" cx="50%" cy="50%" r="50%" fx="50%" fy="50%">
      <stop offset="0%" stop-color="#f72585" stop-opacity="1">
        <animate attributeName="stop-opacity" values="1;0.3;1" dur="2s" repeatCount="indefinite" />
      </stop>
      <stop offset="100%" stop-color="#4cc9f0" stop-opacity="0" />
    </radialGradient>
  </defs>
  
  <!-- Main Background -->
  <rect width="1280" height="640" fill="url(#bgGradient)"/>
  <rect width="1280" height="640" fill="url(#circuitPattern)"/>
  
  <!-- Title and Subtitle - MOVED HIGHER TO AVOID OVERLAP -->
  <g filter="url(#glow)">
    <text x="640" y="100" font-family="Arial, sans-serif" font-size="60" font-weight="bold" text-anchor="middle" fill="#ffffff">
      3D NAND FLASH
    </text>
    <text x="640" y="165" font-family="Arial, sans-serif" font-size="50" font-weight="bold" text-anchor="middle" fill="#4cc9f0">
      OPTIMIZATION TOOL
    </text>
  </g>
  
  <!-- 3D NAND Flash Memory Visualization - MOVED RIGHT -->
  <!-- Stylized 3D structure representing stacked NAND cells -->
  <g transform="translate(200, 320)">
    <!-- Base layers -->
    <g transform="skewX(-15) scale(1.2)">
      <!-- Foundation layer -->
      <rect x="0" y="100" width="160" height="30" fill="#1E88E5" opacity="0.9" rx="3"/>
      
      <!-- Memory cell layers with different opacity to create 3D effect -->
      <rect x="0" y="80" width="160" height="20" fill="#0D47A1" opacity="0.8" rx="2"/>
      <rect x="0" y="60" width="160" height="20" fill="#1976D2" opacity="0.85" rx="2"/>
      <rect x="0" y="40" width="160" height="20" fill="#2196F3" opacity="0.9" rx="2"/>
      <rect x="0" y="20" width="160" height="20" fill="#64B5F6" opacity="0.95" rx="2"/>
      <rect x="0" y="0" width="160" height="20" fill="#90CAF9" opacity="1" rx="2"/>
      
      <!-- Connection lines -->
      <line x1="40" y1="0" x2="40" y2="130" stroke="#BBE0FF" stroke-width="1.5" opacity="0.7"/>
      <line x1="80" y1="0" x2="80" y2="130" stroke="#BBE0FF" stroke-width="1.5" opacity="0.7"/>
      <line x1="120" y1="0" x2="120" y2="130" stroke="#BBE0FF" stroke-width="1.5" opacity="0.7"/>
      
      <!-- Data entry points with glowing effects -->
      <circle cx="40" cy="0" r="3" fill="#4cc9f0" opacity="0.8" filter="url(#glow)">
        <animate attributeName="opacity" values="0.8;1;0.8" dur="2s" repeatCount="indefinite" />
      </circle>
      <circle cx="80" cy="0" r="3" fill="#4cc9f0" opacity="0.8" filter="url(#glow)">
        <animate attributeName="opacity" values="0.8;1;0.8" dur="1.5s" repeatCount="indefinite" />
      </circle>
      <circle cx="120" cy="0" r="3" fill="#4cc9f0" opacity="0.8" filter="url(#glow)">
        <animate attributeName="opacity" values="0.8;1;0.8" dur="2.5s" repeatCount="indefinite" />
      </circle>
    </g>
    
    <!-- Digital data flow animation - ENHANCED -->
    <!-- Vertical data flow channels -->
    <g transform="translate(130, 15) skewX(-15)">
      <rect x="0" y="0" width="10" height="115" fill="url(#bgGradient)" opacity="0.2"/>
      <!-- Data packets with varied speeds and sizes -->
      <circle cx="5" cy="20" r="4" fill="#3EC2FC" opacity="0.9" filter="url(#glow)">
        <animate attributeName="cy" values="0;115;0" dur="3s" repeatCount="indefinite"/>
        <animate attributeName="r" values="3;5;3" dur="3s" repeatCount="indefinite"/>
      </circle>
      <circle cx="5" cy="50" r="3" fill="#3EC2FC" opacity="0.9" filter="url(#glow)">
        <animate attributeName="cy" values="30;145;30" dur="4s" repeatCount="indefinite"/>
      </circle>
      <circle cx="5" cy="80" r="4" fill="#3EC2FC" opacity="0.9" filter="url(#glow)">
        <animate attributeName="cy" values="60;175;60" dur="2.5s" repeatCount="indefinite"/>
      </circle>
      <circle cx="5" cy="100" r="3" fill="#3EC2FC" opacity="0.9" filter="url(#glow)">
        <animate attributeName="cy" values="90;205;90" dur="3.8s" repeatCount="indefinite"/>
      </circle>
    </g>
    
    <!-- Additional data channels -->
    <g transform="translate(90, 15) skewX(-15)">
      <rect x="0" y="0" width="10" height="115" fill="url(#bgGradient)" opacity="0.2"/>
      <circle cx="5" cy="10" r="3" fill="#3EC2FC" opacity="0.9" filter="url(#glow)">
        <animate attributeName="cy" values="10;125;10" dur="2.8s" repeatCount="indefinite"/>
      </circle>
      <circle cx="5" cy="70" r="4" fill="#3EC2FC" opacity="0.9" filter="url(#glow)">
        <animate attributeName="cy" values="70;185;70" dur="3.3s" repeatCount="indefinite"/>
      </circle>
    </g>
    
    <g transform="translate(170, 15) skewX(-15)">
      <rect x="0" y="0" width="10" height="115" fill="url(#bgGradient)" opacity="0.2"/>
      <circle cx="5" cy="30" r="3" fill="#3EC2FC" opacity="0.9" filter="url(#glow)">
        <animate attributeName="cy" values="30;145;30" dur="3.5s" repeatCount="indefinite"/>
      </circle>
      <circle cx="5" cy="90" r="4" fill="#3EC2FC" opacity="0.9" filter="url(#glow)">
        <animate attributeName="cy" values="90;205;90" dur="2.2s" repeatCount="indefinite"/>
      </circle>
    </g>
    
    <!-- Horizontal data connections across layers -->
    <g transform="skewX(-15)">
      <!-- Layer 1 connections -->
      <line x1="10" y1="10" x2="160" y2="10" stroke="#4cc9f0" stroke-width="1.5" opacity="0.5">
        <animate attributeName="stroke-dasharray" values="1,30;30,1" dur="4s" repeatCount="indefinite"/>
      </line>
      <!-- Layer 2 connections -->
      <line x1="10" y1="30" x2="160" y2="30" stroke="#4cc9f0" stroke-width="1.5" opacity="0.5">
        <animate attributeName="stroke-dasharray" values="1,30;30,1" dur="5s" repeatCount="indefinite"/>
      </line>
      <!-- Layer 3 connections -->
      <line x1="10" y1="50" x2="160" y2="50" stroke="#4cc9f0" stroke-width="1.5" opacity="0.5">
        <animate attributeName="stroke-dasharray" values="1,30;30,1" dur="3.5s" repeatCount="indefinite"/>
      </line>
      <!-- Layer 4 connections -->
      <line x1="10" y1="70" x2="160" y2="70" stroke="#4cc9f0" stroke-width="1.5" opacity="0.5">
        <animate attributeName="stroke-dasharray" values="1,30;30,1" dur="4.5s" repeatCount="indefinite"/>
      </line>
      <!-- Layer 5 connections -->
      <line x1="10" y1="90" x2="160" y2="90" stroke="#4cc9f0" stroke-width="1.5" opacity="0.5">
        <animate attributeName="stroke-dasharray" values="1,30;30,1" dur="3.8s" repeatCount="indefinite"/>
      </line>
      <!-- Layer 6 connections -->
      <line x1="10" y1="110" x2="160" y2="110" stroke="#4cc9f0" stroke-width="1.5" opacity="0.5">
        <animate attributeName="stroke-dasharray" values="1,30;30,1" dur="4.2s" repeatCount="indefinite"/>
      </line>
    </g>
    
    <!-- Additional data flow visualization -->
    <g transform="translate(50, -10)">
      <path d="M0,0 C20,40 60,60 120,60" stroke="#4cc9f0" stroke-width="2" fill="none" opacity="0.3">
        <animate attributeName="stroke-dasharray" values="0,20;20,0" dur="3s" repeatCount="indefinite"/>
      </path>
      <circle cx="0" cy="0" r="3" fill="#f72585" opacity="0.8">
        <animate attributeName="cx" values="0;120" dur="3s" repeatCount="indefinite"/>
        <animate attributeName="cy" values="0;60" dur="3s" repeatCount="indefinite"/>
      </circle>
    </g>
  </g>
  
  <!-- Dashboard/UI Visualization - MOVED RIGHT -->
  <g transform="translate(980, 350)">
    <!-- Monitor outline -->
    <rect x="-150" y="-120" width="300" height="200" rx="10" fill="#1d2951" stroke="#4361ee" stroke-width="2"/>
    <rect x="-140" y="-110" width="280" height="180" rx="5" fill="#121933"/>
    
    <!-- Screen elements -->
    <!-- Graph visualization -->
    <polyline points="-120,-80 -100,-50 -80,-70 -60,-30 -40,-60 -20,-40 0,-50 20,-20 40,-40 60,-10 80,-30 100,-20" 
            stroke="#2dc8ea" stroke-width="2" fill="none" opacity="0.9"/>
    <polyline points="-120,-20 -100,-30 -80,-10 -60,-30 -40,-10 -20,-40 0,-20 20,-30 40,-10 60,-20 80,-10 100,-20" 
            stroke="#4cc9f0" stroke-width="2" fill="none" opacity="0.7"/>
    
    <!-- UI Elements -->
    <rect x="-120" y="20" width="220" height="20" rx="3" fill="#2b3595" opacity="0.8"/>
    <rect x="-120" y="50" width="100" height="20" rx="3" fill="#4361ee" opacity="0.8"/>
    <rect x="0" y="50" width="100" height="20" rx="3" fill="#3a0ca3" opacity="0.8"/>
    
    <!-- Data points -->
    <circle cx="-100" cy="-50" r="3" fill="#4cc9f0"/>
    <circle cx="-60" cy="-30" r="3" fill="#4cc9f0"/>
    <circle cx="-20" cy="-40" r="3" fill="#4cc9f0"/>
    <circle cx="20" cy="-20" r="3" fill="#4cc9f0"/>
    <circle cx="60" cy="-10" r="3" fill="#4cc9f0"/>
    <circle cx="100" cy="-20" r="3" fill="#4cc9f0"/>
    
    <!-- Animated data reception -->
    <circle cx="-130" cy="0" r="5" fill="url(#dataPulse)"/>
  </g>
  
  <!-- Connection lines between NAND and dashboard - ENHANCED -->
  <!-- Main data flow path with animated particles -->
  <path d="M380,320 C500,280 700,280 830,320" stroke="#4cc9f0" stroke-width="2" fill="none" opacity="0.6" stroke-dasharray="5,3">
    <animate attributeName="stroke-dashoffset" values="0;-50" dur="5s" repeatCount="indefinite"/>
  </path>
  
  <!-- Data particles traveling along path -->
  <circle cx="0" cy="0" r="4" fill="#f72585" opacity="0.8" filter="url(#glow)">
    <animateMotion dur="3s" repeatCount="indefinite" path="M380,320 C500,280 700,280 830,320"/>
  </circle>
  <circle cx="0" cy="0" r="3" fill="#4cc9f0" opacity="0.8" filter="url(#glow)">
    <animateMotion dur="4s" repeatCount="indefinite" begin="1s" path="M380,320 C500,280 700,280 830,320"/>
  </circle>
  <circle cx="0" cy="0" r="5" fill="#3a0ca3" opacity="0.7" filter="url(#glow)">
    <animateMotion dur="5s" repeatCount="indefinite" begin="2s" path="M380,320 C500,280 700,280 830,320"/>
  </circle>
  
  <!-- Secondary data flow path -->
  <path d="M380,350 C480,390 620,400 830,350" stroke="#3a0ca3" stroke-width="2" fill="none" opacity="0.4" stroke-dasharray="3,5">
    <animate attributeName="stroke-dashoffset" values="0;-40" dur="7s" repeatCount="indefinite"/>
  </path>
  
  <!-- Data particles on secondary path -->
  <circle cx="0" cy="0" r="3" fill="#4cc9f0" opacity="0.7" filter="url(#glow)">
    <animateMotion dur="4.5s" repeatCount="indefinite" path="M380,350 C480,390 620,400 830,350"/>
  </circle>
  <circle cx="0" cy="0" r="4" fill="#f72585" opacity="0.6" filter="url(#glow)">
    <animateMotion dur="6s" repeatCount="indefinite" begin="1.5s" path="M380,350 C480,390 620,400 830,350"/>
  </circle>
  
  <!-- Data flow connection to the optimization gear -->
  <path d="M350,320 C450,330 530,350 570,350" stroke="#4cc9f0" stroke-width="2" fill="none" opacity="0.5" stroke-dasharray="4,3">
    <animate attributeName="stroke-dashoffset" values="0;-35" dur="4s" repeatCount="indefinite"/>
  </path>
  
  <!-- Data particles to gear -->
  <circle cx="0" cy="0" r="3" fill="#4cc9f0" opacity="0.8" filter="url(#glow)">
    <animateMotion dur="3s" repeatCount="indefinite" path="M350,320 C450,330 530,350 570,350"/>
  </circle>
  <circle cx="0" cy="0" r="4" fill="#f72585" opacity="0.7" filter="url(#glow)">
    <animateMotion dur="4.5s" repeatCount="indefinite" begin="1s" path="M350,320 C450,330 530,350 570,350"/>
  </circle>
  
  <!-- Optimization visualization - gear with data flow -->
  <g transform="translate(640, 350)">
    <!-- Outer gear -->
    <circle cx="0" cy="0" r="70" fill="none" stroke="#4361ee" stroke-width="3" opacity="0.8"/>
    
    <!-- Gear teeth -->
    <g>
      <animateTransform attributeName="transform" type="rotate" values="0;360" dur="60s" repeatCount="indefinite"/>
      <path d="M0,-70 L10,-70 L15,-85 L-15,-85 L-10,-70 Z" fill="#4361ee" opacity="0.8"/>
      <path d="M0,-70 L10,-70 L15,-85 L-15,-85 L-10,-70 Z" fill="#4361ee" opacity="0.8" transform="rotate(40)"/>
      <path d="M0,-70 L10,-70 L15,-85 L-15,-85 L-10,-70 Z" fill="#4361ee" opacity="0.8" transform="rotate(80)"/>
      <path d="M0,-70 L10,-70 L15,-85 L-15,-85 L-10,-70 Z" fill="#4361ee" opacity="0.8" transform="rotate(120)"/>
      <path d="M0,-70 L10,-70 L15,-85 L-15,-85 L-10,-70 Z" fill="#4361ee" opacity="0.8" transform="rotate(160)"/>
      <path d="M0,-70 L10,-70 L15,-85 L-15,-85 L-10,-70 Z" fill="#4361ee" opacity="0.8" transform="rotate(200)"/>
      <path d="M0,-70 L10,-70 L15,-85 L-15,-85 L-10,-70 Z" fill="#4361ee" opacity="0.8" transform="rotate(240)"/>
      <path d="M0,-70 L10,-70 L15,-85 L-15,-85 L-10,-70 Z" fill="#4361ee" opacity="0.8" transform="rotate(280)"/>
      <path d="M0,-70 L10,-70 L15,-85 L-15,-85 L-10,-70 Z" fill="#4361ee" opacity="0.8" transform="rotate(320)"/>
    </g>
    
    <!-- Inner ring with data particles -->
    <circle cx="0" cy="0" r="45" fill="none" stroke="#3a0ca3" stroke-width="2" opacity="0.7"/>
    
    <!-- Optimized data flows - ENHANCED -->
    <g opacity="0.9">
      <!-- More data particles with varied speeds -->
      <circle cx="25" cy="15" r="4" fill="#4cc9f0" filter="url(#glow)">
        <animateTransform attributeName="transform" type="rotate" values="0;360" dur="3s" repeatCount="indefinite"/>
        <animate attributeName="r" values="3;5;3" dur="3s" repeatCount="indefinite"/>
      </circle>
      <circle cx="-20" cy="25" r="3" fill="#4cc9f0" filter="url(#glow)">
        <animateTransform attributeName="transform" type="rotate" values="90;450" dur="4s" repeatCount="indefinite"/>
      </circle>
      <circle cx="10" cy="-30" r="4" fill="#4cc9f0" filter="url(#glow)">
        <animateTransform attributeName="transform" type="rotate" values="180;540" dur="3.5s" repeatCount="indefinite"/>
        <animate attributeName="r" values="4;5;4" dur="2s" repeatCount="indefinite"/>
      </circle>
      <circle cx="-25" cy="-15" r="3" fill="#4cc9f0" filter="url(#glow)">
        <animateTransform attributeName="transform" type="rotate" values="270;630" dur="2.5s" repeatCount="indefinite"/>
      </circle>
      <!-- Additional particles -->
      <circle cx="30" cy="-10" r="3" fill="#4cc9f0" filter="url(#glow)">
        <animateTransform attributeName="transform" type="rotate" values="45;405" dur="4.2s" repeatCount="indefinite"/>
      </circle>
      <circle cx="-15" cy="-28" r="4" fill="#4cc9f0" filter="url(#glow)">
        <animateTransform attributeName="transform" type="rotate" values="135;495" dur="3.8s" repeatCount="indefinite"/>
        <animate attributeName="r" values="4;6;4" dur="3.8s" repeatCount="indefinite"/>
      </circle>
      <circle cx="-30" cy="5" r="3" fill="#4cc9f0" filter="url(#glow)">
        <animateTransform attributeName="transform" type="rotate" values="225;585" dur="3.2s" repeatCount="indefinite"/>
      </circle>
      <circle cx="5" cy="32" r="4" fill="#4cc9f0" filter="url(#glow)">
        <animateTransform attributeName="transform" type="rotate" values="315;675" dur="2.8s" repeatCount="indefinite"/>
        <animate attributeName="r" values="3;5;3" dur="2.8s" repeatCount="indefinite"/>
      </circle>
    </g>
    
    <!-- Data connection pulse rings -->
    <circle cx="0" cy="0" r="55" fill="none" stroke="#4cc9f0" stroke-width="1" opacity="0">
      <animate attributeName="r" values="25;55" dur="3s" repeatCount="indefinite"/>
      <animate attributeName="opacity" values="0.7;0" dur="3s" repeatCount="indefinite"/>
    </circle>
    <circle cx="0" cy="0" r="55" fill="none" stroke="#f72585" stroke-width="1" opacity="0">
      <animate attributeName="r" values="15;45" dur="3s" begin="1.5s" repeatCount="indefinite"/>
      <animate attributeName="opacity" values="0.5;0" dur="3s" begin="1.5s" repeatCount="indefinite"/>
    </circle>
    
    <!-- Central core - represents optimization engine -->
    <circle cx="0" cy="0" r="25" fill="#7209b7" opacity="0.8" filter="url(#glow)"/>
    <circle cx="0" cy="0" r="15" fill="#f72585" opacity="0.9" filter="url(#glow)">
      <animate attributeName="r" values="15;18;15" dur="4s" repeatCount="indefinite"/>
      <animate attributeName="opacity" values="0.9;1;0.9" dur="4s" repeatCount="indefinite"/>
    </circle>
  </g>
  
  <!-- Connection from gear back to NAND -->
  <path d="M570,350 C530,370 450,390 350,370" stroke="#f72585" stroke-width="2" fill="none" opacity="0.5" stroke-dasharray="4,3">
    <animate attributeName="stroke-dashoffset" values="0;-35" dur="3s" repeatCount="indefinite"/>
  </path>
  
  <!-- Data particles returning to NAND -->
  <circle cx="0" cy="0" r="3" fill="#f72585" opacity="0.8" filter="url(#glow)">
    <animateMotion dur="3s" repeatCount="indefinite" path="M570,350 C530,370 450,390 350,370"/>
  </circle>
  <circle cx="0" cy="0" r="4" fill="#4cc9f0" opacity="0.7" filter="url(#glow)">
    <animateMotion dur="3.5s" repeatCount="indefinite" begin="1.2s" path="M570,350 C530,370 450,390 350,370"/>
  </circle>
  
  <!-- Tagline -->
  <text x="640" y="530" font-family="Arial, sans-serif" font-size="24" text-anchor="middle" fill="#ffffff" opacity="0.9">
    Enhancing Performance, Reliability, and Efficiency of Flash Storage Systems
  </text>
</svg>